<svg width="24" height="24" viewBox="0 0 24 24" fill="none" xmlns="http://www.w3.org/2000/svg">
<path fill-rule="evenodd" clip-rule="evenodd" d="M16 10.1194L10.4379 15.6815C10.9178 15.8853 11.4457 15.998 12 15.998C14.2091 15.998 16 14.2072 16 11.998V10.1194ZM8.31653 13.5602C8.11274 13.0803 8 12.5523 8 11.998V5.99805C8 3.78891 9.79086 1.99805 12 1.99805C14.1691 1.99805 15.935 3.72465 15.9982 5.87848L8.31653 13.5602Z" fill="#ACACAC"/>
<path fill-rule="evenodd" clip-rule="evenodd" d="M7.38112 14.4956C7.09167 13.9614 6.89218 13.3714 6.80298 12.7458C6.7445 12.3358 6.41434 11.998 6.00013 11.998C5.58591 11.998 5.24575 12.3351 5.29119 12.7468C5.40566 13.784 5.75512 14.7504 6.28515 15.5916L7.38112 14.4956ZM8.40644 17.7129C9.24732 18.2428 10.2133 18.5922 11.2501 18.7069V21.248H9.00013C8.58591 21.248 8.25013 21.5838 8.25013 21.998C8.25013 22.4123 8.58591 22.748 9.00013 22.748H15.0001C15.4143 22.748 15.7501 22.4123 15.7501 21.998C15.7501 21.5838 15.4143 21.248 15.0001 21.248H12.7501V18.7069C15.8792 18.3609 18.3637 15.8761 18.7091 12.7468C18.7545 12.3351 18.4143 11.998 18.0001 11.998C17.5859 11.998 17.2558 12.3358 17.1973 12.7458C16.8343 15.2911 14.6458 17.248 12.0001 17.248C11.096 17.248 10.2452 17.0195 9.5024 16.617L8.40644 17.7129Z" fill="#ACACAC"/>
<path d="M22 1.99805L2 21.998" stroke="#EE6762" stroke-width="1.5" stroke-linecap="round"/>
</svg>
