<svg width="24" height="24" viewBox="0 0 24 24" fill="none" xmlns="http://www.w3.org/2000/svg">
<rect x="8" y="1.99805" width="8" height="14" rx="4" fill="#ACACAC"/>
<path fill-rule="evenodd" clip-rule="evenodd" d="M6.80298 12.7458C6.7445 12.3358 6.41434 11.998 6.00013 11.998C5.58591 11.998 5.24575 12.3351 5.29119 12.7468C5.63655 15.8761 8.12101 18.3609 11.2501 18.7069V21.248H9.00013C8.58591 21.248 8.25013 21.5838 8.25013 21.998C8.25013 22.4123 8.58591 22.748 9.00013 22.748H15.0001C15.4143 22.748 15.7501 22.4123 15.7501 21.998C15.7501 21.5838 15.4143 21.248 15.0001 21.248H12.7501V18.7069C15.8792 18.3609 18.3637 15.8761 18.7091 12.7468C18.7545 12.3351 18.4143 11.998 18.0001 11.998C17.5859 11.998 17.2558 12.3358 17.1973 12.7458C16.8343 15.2911 14.6458 17.248 12.0001 17.248C9.3545 17.248 7.16594 15.2911 6.80298 12.7458Z" fill="#ACACAC"/>
</svg>
