<svg width="24" height="24" viewBox="0 0 24 24" fill="none" xmlns="http://www.w3.org/2000/svg">
<circle cx="8" cy="7.99805" r="4" fill="#ACACAC"/>
<circle cx="17.5" cy="9.49805" r="3.5" fill="#ACACAC"/>
<path d="M12.8462 20.998C13.9231 20.998 15 19.6522 15 18.3057C15 15.075 11.2098 13.998 8 13.998C4.79018 13.998 1 15.075 1 18.3057C1 19.6522 2.07692 20.998 3.15385 20.998H12.8462Z" fill="#ACACAC"/>
<path fill-rule="evenodd" clip-rule="evenodd" d="M13.3037 20.9199C14.2083 20.6143 15 19.4602 15 18.3057C15 17.2298 14.5796 16.3928 13.9004 15.7548C12.7898 16.3278 12 17.2642 12 18.6904C12 19.6664 12.6051 20.642 13.3037 20.9199ZM15.5728 20.998H21.3077C22.1538 20.998 23 19.8445 23 18.6904C23 15.9211 20.022 14.998 17.5 14.998C16.8236 14.998 16.1143 15.0645 15.4385 15.2151C16.0845 16.0204 16.5 17.0419 16.5 18.3057C16.5 19.3155 16.1222 20.2718 15.5728 20.998Z" fill="#ACACAC"/>
</svg>
