<svg width="24" height="24" viewBox="0 0 24 24" fill="none" xmlns="http://www.w3.org/2000/svg">
<path fill-rule="evenodd" clip-rule="evenodd" d="M3 3.99805C1.89543 3.99805 1 4.89348 1 5.99805V17.998C1 19.1026 1.89543 19.998 3 19.998H21C22.1046 19.998 23 19.1026 23 17.998V5.99805C23 4.89348 22.1046 3.99805 21 3.99805H3ZM12.5303 7.46772C12.2374 7.17482 11.7626 7.17482 11.4697 7.46772L8.46967 10.4677C8.17678 10.7606 8.17678 11.2355 8.46967 11.5284C8.76256 11.8213 9.23744 11.8213 9.53033 11.5284L11.25 9.80871V14.998C11.25 15.4123 11.5858 15.748 12 15.748C12.4142 15.748 12.75 15.4123 12.75 14.998V9.80871L14.4697 11.5284C14.7626 11.8213 15.2374 11.8213 15.5303 11.5284C15.8232 11.2355 15.8232 10.7606 15.5303 10.4677L12.5303 7.46772Z" fill="#69D569"/>
</svg>
