<svg width="24" height="24" viewBox="0 0 24 24" fill="none" xmlns="http://www.w3.org/2000/svg">
<path d="M18 9.56424C18 9.21297 18.1843 8.88747 18.4855 8.70674L21.4855 6.90674C22.152 6.50683 23 6.98694 23 7.76424V17.2319C23 18.0092 22.152 18.4893 21.4855 18.0893L18.4855 16.2893C18.1843 16.1086 18 15.7831 18 15.4319V9.56424Z" fill="#ACACAC"/>
<path fill-rule="evenodd" clip-rule="evenodd" d="M15.212 6.66477C14.5784 6.24351 13.8179 5.99805 13 5.99805H3C1.89543 5.99805 1 6.89348 1 7.99805V14.998C1 16.5878 1.92743 17.961 3.27076 18.606L15.212 6.66477ZM7.12132 18.998H15C16.1046 18.998 17 18.1026 17 16.998V9.99805C17 9.72447 16.9725 9.4573 16.9202 9.19916L7.12132 18.998Z" fill="#ACACAC"/>
<path d="M22 1.99805L2 21.998" stroke="#EE6762" stroke-width="1.5" stroke-linecap="round"/>
</svg>
