<svg width="24" height="24" viewBox="0 0 24 24" fill="none" xmlns="http://www.w3.org/2000/svg">
<path d="M1 7.99805C1 6.89348 1.89543 5.99805 3 5.99805H13C15.2091 5.99805 17 7.78891 17 9.99805V16.998C17 18.1026 16.1046 18.998 15 18.998H5C2.79086 18.998 1 17.2072 1 14.998V7.99805Z" fill="#ACACAC"/>
<path d="M18 9.56424C18 9.21297 18.1843 8.88747 18.4855 8.70674L21.4855 6.90674C22.152 6.50683 23 6.98694 23 7.76424V17.2319C23 18.0092 22.152 18.4893 21.4855 18.0893L18.4855 16.2893C18.1843 16.1086 18 15.7831 18 15.4319V9.56424Z" fill="#ACACAC"/>
</svg>
